<svg xmlns="http://www.w3.org/2000/svg" viewBox="0 0 109.79 105.03"><defs><style>.cls-1{font-size:27.45px;font-family:Poppins-Bold, Poppins;font-weight:700;}.cls-1,.cls-2{fill:#fff;}</style></defs><g id="Calque_2" data-name="Calque 2"><g id="Calque_1-2" data-name="Calque 1"><text class="cls-1" transform="translate(0 88.39)">1CiviL.IT</text><path class="cls-2" d="M90.51.92A127.36,127.36,0,0,0,69,22.26a86.38,86.38,0,0,0-8.23,12.35c-2.31,4.37-4,9-6.17,13.32l-.23.47a4.45,4.45,0,0,1-6,2,4.83,4.83,0,0,1-1.15-.83q-2-2-3.94-4.19c-1.28-1.42-2.51-2.91-3.71-4.42s-2.36-3.09-3.47-4.71a50.89,50.89,0,0,1-3.09-5.13.48.48,0,0,1,.22-.64.44.44,0,0,1,.39,0A49.71,49.71,0,0,1,39.07,33c1.72.93,3.41,1.92,5,3s3,2,4.46,3a73,73,0,0,1,5.71-8.51A102.74,102.74,0,0,1,64.65,18.37,105.92,105.92,0,0,1,90,.16a.46.46,0,0,1,.61.2A.44.44,0,0,1,90.51.92Z"/><path class="cls-2" d="M57.59,21a6,6,0,1,1-6-6A6,6,0,0,1,57.59,21Z"/><path class="cls-2" d="M79.72,42.54a26.17,26.17,0,0,1-3.32,8,29.49,29.49,0,0,1-5.87,6.72,25.46,25.46,0,0,1-3.7,2.62,19.5,19.5,0,0,1-2,1.14l-2.09,1a30.81,30.81,0,0,1-8.95,2.25l-1.16.11H51.48c-.77,0-1.56,0-2.33,0a32.52,32.52,0,0,1-4.62-.65,33.29,33.29,0,0,1-4.48-1.31c-.72-.3-1.42-.64-2.13-.95a18.37,18.37,0,0,1-2.06-1.08,34.45,34.45,0,0,1-12.7-13,33,33,0,0,1-4-17.42,16.79,16.79,0,0,1,.2-2.24l.33-2.21a36.93,36.93,0,0,1,1.19-4.3,33.36,33.36,0,0,1,1.72-4.09c.32-.67.73-1.29,1.09-1.93l.56-1,.64-.9a31.3,31.3,0,0,1,6-6.39L32.62,5.6c.56-.45,1.23-.77,1.83-1.16a27.47,27.47,0,0,1,3.84-2A31.65,31.65,0,0,1,46.57.21,30.78,30.78,0,0,1,55,.39a.35.35,0,0,1,.3.4.36.36,0,0,1-.38.29A30,30,0,0,0,39.22,4.39a24.32,24.32,0,0,0-3.4,2.14,15.52,15.52,0,0,0-1.6,1.2L32.73,9.05a28,28,0,0,0-4.91,6.16l-.51.84-.44.88c-.27.59-.6,1.16-.84,1.76a29.28,29.28,0,0,0-1.25,3.7,30.47,30.47,0,0,0-.78,3.8l-.15,1.92a13.82,13.82,0,0,0,0,1.93A27.78,27.78,0,0,0,28,44.52a26.29,26.29,0,0,0,11.11,9.73,29.68,29.68,0,0,0,3.4,1.41,36.32,36.32,0,0,0,3.55.93,28.77,28.77,0,0,0,7.29.69c.62,0,1.23,0,1.85-.08L57,57a12.67,12.67,0,0,0,1.82-.34c.6-.15,1.23-.23,1.82-.44l1.79-.56c.61-.17,1.17-.48,1.76-.7a28,28,0,0,0,3.44-1.67,34,34,0,0,0,11.41-11,.35.35,0,0,1,.49-.1A.34.34,0,0,1,79.72,42.54Z"/></g></g></svg>